<?xml version="1.0" standalone="no"?>
<!DOCTYPE svg PUBLIC "-//W3C//DTD SVG 20010904//EN"
 "http://www.w3.org/TR/2001/REC-SVG-20010904/DTD/svg10.dtd">
<svg version="1.0" xmlns="http://www.w3.org/2000/svg"
 width="512.000000pt" height="512.000000pt" viewBox="0 0 512.000000 512.000000"
 preserveAspectRatio="xMidYMid meet">

<g transform="translate(0.000000,512.000000) scale(0.100000,-0.100000)"
fill="#000000" stroke="none">
<path d="M2483 5100 c-51 -31 -54 -64 -16 -220 23 -99 24 -504 2 -620 l-15
-75 -23 45 c-13 25 -62 83 -110 131 -77 76 -100 92 -228 157 -84 43 -154 72
-172 72 -42 0 -92 -46 -93 -85 0 -16 5 -65 12 -108 15 -92 9 -224 -15 -318 -9
-35 -38 -132 -65 -215 -117 -357 -126 -512 -41 -699 17 -37 31 -69 31 -71 0
-1 -88 -4 -195 -6 -180 -3 -196 -5 -215 -23 -38 -39 -41 -75 -11 -162 105
-298 298 -524 614 -717 l28 -17 -32 -37 c-52 -59 -73 -117 -73 -202 -1 -56 5
-87 21 -121 25 -56 83 -116 138 -144 l40 -21 8 -94 c4 -52 23 -287 40 -521
l32 -427 -51 -11 c-182 -41 -282 -242 -206 -414 26 -57 91 -123 151 -151 45
-21 56 -21 521 -21 465 0 476 0 521 21 60 28 125 94 151 151 76 172 -24 373
-206 414 l-51 11 32 427 c17 234 36 469 40 521 l8 94 40 21 c55 28 113 88 138
144 16 34 22 65 21 121 0 85 -21 143 -73 202 l-32 37 28 17 c197 120 338 245
443 392 114 159 207 374 189 435 -19 67 -32 72 -215 75 -149 3 -164 5 -160 20
2 9 10 73 17 142 41 427 -79 916 -317 1296 -155 247 -358 458 -528 548 -59 31
-81 32 -123 6z m326 -445 c319 -380 486 -904 442 -1380 -6 -66 -14 -135 -17
-152 l-6 -33 -128 0 -127 0 -19 62 c-36 120 -133 235 -242 286 -49 23 -70 27
-152 27 -82 0 -103 -4 -152 -27 -109 -51 -206 -166 -242 -286 l-19 -62 -72 0
-71 0 -37 48 c-49 65 -85 147 -99 223 -15 89 1 188 66 387 87 268 116 393 116
503 0 32 4 59 9 59 18 0 128 -88 158 -126 71 -90 99 -173 114 -339 6 -66 17
-129 24 -141 20 -31 69 -49 108 -38 45 13 71 59 117 201 82 256 114 476 109
745 l-4 177 29 -27 c15 -15 59 -63 95 -107z m-182 -1396 c51 -19 133 -116 133
-159 0 -6 -68 -10 -200 -10 -132 0 -200 4 -200 10 0 41 81 139 130 159 34 13
102 13 137 0z m943 -377 c0 -5 -22 -45 -49 -90 -127 -211 -277 -349 -492 -451
-245 -117 -507 -140 -764 -66 -114 32 -292 120 -370 182 l-60 48 113 5 c109 5
115 6 138 33 48 56 20 136 -54 157 -20 5 -114 10 -209 10 l-172 0 -19 28 c-11
15 -34 55 -51 90 l-31 62 1010 0 c555 0 1010 -4 1010 -8z m-561 -867 c57 -29
64 -110 15 -156 l-26 -24 -438 0 -438 0 -26 24 c-48 46 -42 126 13 156 39 21
859 22 900 0z m-547 -555 l3 -170 28 -27 c38 -38 96 -38 135 0 l27 27 3 170 3
170 95 0 c52 0 94 -3 94 -7 1 -25 -72 -982 -76 -1000 -4 -23 -5 -23 -214 -23
-209 0 -210 0 -214 23 -4 18 -77 975 -76 1000 0 4 42 7 94 7 l95 0 3 -170z
m565 -1092 c38 -39 38 -97 0 -136 l-27 -27 -440 0 -440 0 -27 27 c-49 49 -32
132 32 159 11 4 212 7 447 6 l428 -2 27 -27z"/>
<path d="M2229 2671 c-88 -89 43 -219 138 -137 23 20 28 32 28 71 0 39 -5 51
-28 71 -41 35 -99 33 -138 -5z"/>
<path d="M2507 1129 c-28 -16 -49 -68 -43 -104 20 -105 172 -105 192 0 7 37
-16 89 -45 105 -25 13 -81 12 -104 -1z"/>
</g>
</svg>
