<?xml version="1.0" standalone="no"?>
<!DOCTYPE svg PUBLIC "-//W3C//DTD SVG 20010904//EN"
 "http://www.w3.org/TR/2001/REC-SVG-20010904/DTD/svg10.dtd">
<svg version="1.0" xmlns="http://www.w3.org/2000/svg"
 width="512.000000pt" height="512.000000pt" viewBox="0 0 512.000000 512.000000"
 preserveAspectRatio="xMidYMid meet">

<g transform="translate(0.000000,512.000000) scale(0.100000,-0.100000)"
fill="#000000" stroke="none">
<path d="M4438 5099 c-43 -22 -78 -81 -78 -129 0 -17 9 -49 20 -70 23 -45 80
-80 130 -80 50 0 107 35 130 80 11 21 20 53 20 70 0 50 -35 107 -80 130 -49
25 -94 25 -142 -1z"/>
<path d="M2021 4809 c-128 -25 -257 -125 -311 -241 -37 -79 -50 -146 -50 -259
l0 -89 -89 0 c-170 0 -282 -40 -377 -134 -94 -94 -134 -207 -134 -375 0 -136
-8 -147 -191 -246 -70 -37 -114 -71 -178 -135 -93 -92 -140 -162 -178 -268
-53 -143 -52 -126 -53 -1428 0 -784 4 -1230 10 -1265 34 -180 179 -325 359
-359 74 -14 2488 -14 2562 0 180 34 325 179 359 359 6 35 10 481 10 1265 -1
1302 0 1285 -53 1428 -38 106 -85 176 -178 268 -64 64 -108 98 -178 135 -183
99 -191 110 -191 246 0 168 -40 281 -134 375 -95 94 -207 134 -377 134 l-89 0
0 240 c0 222 -2 244 -20 280 -36 71 -69 80 -287 79 -103 -1 -208 -5 -232 -10z
m239 -439 l0 -150 -150 0 -150 0 0 90 c0 164 45 209 208 210 l92 0 0 -150z
m520 -470 c61 -31 80 -78 80 -198 0 -233 80 -360 300 -476 172 -90 257 -191
289 -344 8 -37 11 -417 11 -1258 0 -1188 0 -1205 -20 -1244 -13 -26 -34 -47
-60 -60 -39 -20 -56 -20 -1270 -20 -1214 0 -1231 0 -1270 20 -26 13 -47 34
-60 60 -20 39 -20 56 -20 1244 0 841 3 1221 11 1258 32 153 117 254 289 344
220 116 300 243 300 476 0 119 19 166 78 197 36 19 60 20 670 21 615 0 634 -1
672 -20z"/>
<path d="M1738 3599 c-43 -22 -78 -81 -78 -129 0 -50 35 -107 80 -130 37 -19
58 -20 370 -20 312 0 333 1 370 20 45 23 80 80 80 130 0 50 -35 107 -80 130
-37 19 -58 20 -372 20 -312 -1 -335 -2 -370 -21z"/>
<path d="M1138 2989 c-23 -12 -46 -35 -58 -59 -19 -37 -20 -58 -20 -368 0
-423 -16 -385 206 -499 87 -45 159 -85 159 -90 -1 -4 -13 -46 -29 -93 -19 -59
-29 -115 -33 -181 l-6 -96 -108 -54 c-60 -29 -120 -64 -135 -77 -52 -49 -54
-65 -54 -422 0 -312 1 -333 20 -370 23 -45 80 -80 130 -80 50 0 107 35 130 80
19 36 20 58 20 313 l0 273 43 21 44 21 41 -63 c65 -98 178 -197 286 -250 127
-63 197 -79 336 -79 139 0 209 16 336 79 108 53 221 152 286 250 l41 63 44
-21 43 -21 0 -273 c0 -255 1 -277 20 -313 23 -45 80 -80 130 -80 50 0 107 35
130 80 19 37 20 58 20 373 0 422 10 393 -172 487 l-125 64 -6 96 c-5 83 -28
181 -62 262 -6 14 19 30 142 92 81 41 159 84 172 96 49 47 51 66 51 415 0 307
-1 328 -20 365 -23 45 -80 80 -130 80 -50 0 -107 -35 -130 -80 -19 -36 -20
-58 -20 -307 l0 -269 -129 -63 -129 -64 -53 38 c-30 21 -56 40 -58 42 -2 2 7
27 21 55 84 171 49 379 -86 514 -174 174 -458 174 -632 0 -135 -135 -170 -343
-86 -514 14 -28 23 -53 21 -55 -2 -2 -28 -21 -58 -42 l-53 -38 -129 64 -129
63 0 269 c0 249 -1 271 -20 307 -37 73 -127 99 -202 59z m1042 -299 c45 -23
80 -80 80 -130 0 -76 -74 -150 -150 -150 -50 0 -107 35 -130 80 -25 50 -25 90
0 140 37 73 124 99 200 60z m11 -590 c235 -45 399 -275 361 -506 -32 -196
-180 -344 -376 -376 -289 -48 -556 219 -508 508 42 252 277 420 523 374z"/>
<path d="M3838 4799 c-43 -22 -78 -81 -78 -129 0 -50 35 -107 80 -130 21 -11
53 -20 70 -20 17 0 49 9 70 20 45 23 80 80 80 130 0 50 -35 107 -80 130 -49
25 -94 25 -142 -1z"/>
<path d="M3238 4499 c-43 -22 -78 -81 -78 -129 0 -17 9 -49 20 -70 23 -45 80
-80 130 -80 50 0 107 35 130 80 11 21 20 53 20 70 0 50 -35 107 -80 130 -49
25 -94 25 -142 -1z"/>
<path d="M4438 4499 c-43 -22 -78 -81 -78 -129 0 -17 9 -49 20 -70 23 -45 80
-80 130 -80 50 0 107 35 130 80 11 21 20 53 20 70 0 50 -35 107 -80 130 -49
25 -94 25 -142 -1z"/>
<path d="M3838 4199 c-43 -22 -78 -81 -78 -129 0 -50 35 -107 80 -130 21 -11
53 -20 70 -20 50 0 107 35 130 80 11 21 20 53 20 70 0 50 -35 107 -80 130 -49
25 -94 25 -142 -1z"/>
<path d="M4438 3899 c-43 -22 -78 -81 -78 -129 0 -17 9 -49 20 -70 23 -45 80
-80 130 -80 50 0 107 35 130 80 11 21 20 53 20 70 0 50 -35 107 -80 130 -49
25 -94 25 -142 -1z"/>
</g>
</svg>
