<?xml version="1.0" standalone="no"?>
<!DOCTYPE svg PUBLIC "-//W3C//DTD SVG 20010904//EN"
 "http://www.w3.org/TR/2001/REC-SVG-20010904/DTD/svg10.dtd">
<svg version="1.0" xmlns="http://www.w3.org/2000/svg"
 width="512.000000pt" height="512.000000pt" viewBox="0 0 512.000000 512.000000"
 preserveAspectRatio="xMidYMid meet">

<g transform="translate(0.000000,512.000000) scale(0.100000,-0.100000)"
fill="#000000" stroke="none">
<path d="M905 5016 c-25 -25 -25 -26 -25 -216 0 -189 0 -191 25 -215 l24 -25
256 0 255 0 0 -135 c0 -131 1 -137 25 -160 l24 -25 431 0 431 0 24 25 c24 23
25 29 25 160 l0 136 588 -3 c631 -4 605 -2 754 -58 177 -66 372 -261 438 -438
59 -157 55 -14 58 -1834 l2 -1668 -135 0 c-131 0 -137 -1 -160 -25 -25 -24
-25 -26 -25 -215 0 -189 0 -191 25 -215 l24 -25 511 0 511 0 24 25 c25 24 25
26 25 215 0 189 0 191 -25 215 -23 24 -29 25 -160 25 l-135 0 0 1641 c0 1819
2 1754 -65 1956 -67 201 -160 351 -314 504 -181 181 -371 287 -631 352 -84 21
-99 21 -1433 24 l-1347 4 -25 -25z m2680 -146 c250 -36 469 -145 645 -320 175
-176 284 -395 320 -645 6 -44 10 -676 10 -1707 l0 -1638 -80 0 -80 0 -3 1678
c-2 1556 -4 1682 -20 1741 -51 185 -127 320 -257 451 -109 111 -219 183 -347
230 -171 61 -135 60 -1494 60 l-1239 0 0 80 0 80 1238 0 c766 0 1264 -4 1307
-10z m-1345 -390 l0 -80 -320 0 -320 0 0 80 0 80 320 0 320 0 0 -80z m2640
-4160 l0 -80 -400 0 -400 0 0 80 0 80 400 0 400 0 0 -80z"/>
<path d="M1488 4067 c-26 -34 -45 -64 -43 -68 11 -18 115 -90 123 -85 13 8 95
116 91 119 -2 2 -26 21 -54 43 -27 22 -54 43 -60 46 -5 3 -31 -21 -57 -55z"/>
<path d="M2244 4084 c-33 -25 -61 -47 -63 -49 -4 -4 88 -125 95 -125 6 0 124
91 124 95 0 1 -22 30 -49 63 l-48 61 -59 -45z"/>
<path d="M1840 4000 l0 -80 80 0 80 0 0 80 0 80 -80 0 -80 0 0 -80z"/>
<path d="M1287 3811 l-46 -59 58 -46 c33 -25 63 -46 68 -46 10 1 88 105 88
118 0 11 -100 92 -113 92 -5 0 -30 -26 -55 -59z"/>
<path d="M2435 3828 c-27 -23 -49 -47 -49 -54 2 -16 76 -113 87 -114 5 0 35
21 68 46 l58 46 -46 59 c-25 33 -51 59 -57 58 -6 0 -33 -19 -61 -41z"/>
<path d="M1840 3680 l0 -80 80 0 80 0 0 80 0 80 -80 0 -80 0 0 -80z"/>
<path d="M1093 3565 c-24 -30 -43 -58 -43 -63 0 -5 27 -30 60 -55 l59 -46 46
59 c25 32 45 62 44 67 0 10 -105 93 -116 92 -4 0 -27 -24 -50 -54z"/>
<path d="M2628 3573 l-57 -45 46 -57 c25 -31 49 -57 54 -59 10 -4 119 79 119
90 0 14 -85 118 -95 118 -5 -1 -36 -21 -67 -47z"/>
<path d="M1840 3360 l0 -80 80 0 80 0 0 80 0 80 -80 0 -80 0 0 -80z"/>
<path d="M896 3313 c-25 -32 -46 -61 -46 -64 0 -3 27 -27 60 -52 l59 -47 51
62 c27 34 46 65 42 68 -4 4 -30 25 -58 48 -29 23 -54 42 -57 42 -3 0 -26 -26
-51 -57z"/>
<path d="M2831 3326 c-29 -24 -53 -47 -52 -52 1 -14 81 -114 92 -114 10 0 112
78 116 89 4 8 -85 121 -95 121 -4 -1 -31 -20 -61 -44z"/>
<path d="M700 3064 c-23 -30 -40 -57 -38 -59 1 -2 30 -24 62 -49 l59 -46 44
57 c24 31 40 59 36 63 -68 56 -112 90 -116 90 -2 0 -24 -25 -47 -56z"/>
<path d="M1840 3040 l0 -80 80 0 80 0 0 80 0 80 -80 0 -80 0 0 -80z"/>
<path d="M3035 3079 c-27 -22 -54 -44 -58 -48 -8 -8 67 -111 82 -111 4 0 26
14 47 31 22 17 48 37 58 45 18 12 17 16 -24 69 -23 30 -45 55 -49 55 -3 -1
-28 -19 -56 -41z"/>
<path d="M986 2937 l-26 -26 0 -203 c0 -227 9 -302 47 -398 81 -203 269 -373
468 -424 51 -13 224 -36 269 -36 11 0 9 -13 -10 -68 -45 -131 -54 -220 -54
-558 l0 -314 -97 50 c-54 28 -127 57 -163 66 -118 30 -274 4 -389 -63 -25 -14
-107 -86 -182 -159 -75 -73 -154 -141 -176 -152 -22 -12 -82 -33 -134 -47
-132 -37 -201 -77 -290 -165 -57 -57 -86 -97 -122 -167 -53 -104 -57 -134 -22
-168 l24 -25 1631 0 1631 0 24 25 c31 30 31 47 0 164 -40 149 -77 213 -177
311 -131 127 -167 163 -235 235 -67 72 -146 116 -242 136 -99 21 -361 5 -531
-31 -92 -20 -189 -33 -267 -37 l-123 -6 0 81 0 82 154 0 c93 0 188 6 241 15
394 69 693 403 722 807 6 84 5 87 -21 113 l-27 27 -247 -5 c-258 -4 -295 -10
-422 -59 -99 -38 -211 -111 -291 -190 -87 -84 -90 -81 -42 37 36 85 99 180
183 271 163 179 239 332 280 570 11 66 23 129 25 140 4 19 -2 22 -71 34 -42 6
-78 10 -80 7 -3 -2 -13 -54 -23 -114 -11 -60 -25 -129 -31 -154 -33 -123 -110
-256 -210 -364 l-60 -64 0 57 c-2 259 -144 516 -368 663 -126 83 -245 118
-419 126 -120 6 -121 5 -147 -20z m269 -152 c268 -56 480 -298 502 -575 l5
-75 -20 20 c-11 11 -104 117 -207 235 -104 118 -191 216 -194 217 -3 1 -32
-21 -63 -50 l-58 -52 211 -240 c116 -132 206 -241 201 -243 -20 -6 -149 27
-203 52 -126 60 -233 178 -280 310 -18 51 -22 89 -26 239 l-5 177 33 0 c19 0
66 -7 104 -15z m1535 -974 c0 -48 -46 -181 -87 -250 -132 -224 -400 -374 -642
-359 l-55 3 221 165 221 166 -44 58 c-24 33 -46 61 -49 64 -2 3 -111 -75 -241
-172 -130 -98 -238 -175 -241 -172 -11 11 41 130 87 200 105 160 274 274 460
311 36 7 134 14 218 14 l152 1 0 -29z m-1260 -1004 c159 -81 215 -92 425 -84
111 5 188 14 295 37 108 23 183 32 295 37 224 9 278 -11 390 -144 33 -39 94
-98 135 -131 85 -66 140 -140 169 -224 l20 -58 -1485 0 -1486 0 35 48 c48 64
142 127 230 153 200 58 246 86 422 259 159 156 214 183 354 175 68 -3 86 -9
201 -68z"/>
</g>
</svg>
