<?xml version="1.0" standalone="no"?>
<!DOCTYPE svg PUBLIC "-//W3C//DTD SVG 20010904//EN"
 "http://www.w3.org/TR/2001/REC-SVG-20010904/DTD/svg10.dtd">
<svg version="1.0" xmlns="http://www.w3.org/2000/svg"
 width="512.000000pt" height="512.000000pt" viewBox="0 0 512.000000 512.000000"
 preserveAspectRatio="xMidYMid meet">

<g transform="translate(0.000000,512.000000) scale(0.100000,-0.100000)"
fill="#000000" stroke="none">
<path d="M2506 5087 c-55 -58 -156 -214 -202 -311 -127 -269 -111 -516 46
-715 23 -29 66 -71 96 -94 l54 -42 0 -420 0 -419 -40 39 -40 39 0 106 c0 423
-314 700 -846 745 -76 7 -83 6 -104 -15 -21 -21 -22 -28 -15 -94 38 -392 220
-667 512 -773 90 -32 202 -53 291 -53 l73 0 85 -77 84 -77 0 -530 0 -531 -40
41 -41 40 -3 120 c-2 67 -11 145 -20 179 -78 286 -324 471 -720 540 -122 21
-189 20 -209 -3 -21 -23 -22 -82 -2 -198 70 -401 302 -651 657 -709 51 -8 120
-15 153 -15 l60 0 83 -81 82 -82 0 -407 0 -406 -135 -13 c-600 -55 -1083 -332
-1289 -738 -31 -63 -33 -86 -6 -113 20 -20 33 -20 1490 -20 1457 0 1470 0
1490 20 27 27 25 50 -6 113 -120 237 -325 424 -618 562 -200 95 -421 153 -671
176 l-135 13 0 406 0 407 83 82 82 81 60 0 c33 0 102 7 153 15 355 58 587 308
657 709 21 121 20 179 -3 199 -24 22 -91 22 -208 2 -396 -69 -642 -254 -720
-540 -9 -34 -18 -112 -20 -179 l-3 -120 -41 -40 -40 -41 0 531 0 530 84 77 85
77 73 0 c89 0 201 21 291 53 292 106 474 381 512 773 7 66 6 73 -15 94 -21 21
-28 22 -104 16 -291 -25 -541 -132 -685 -292 -107 -121 -161 -272 -161 -454
l0 -106 -40 -39 -40 -39 0 420 0 421 59 46 c107 83 187 206 212 326 6 32 9
101 7 161 -8 164 -63 313 -186 496 -77 114 -123 164 -152 164 -13 0 -37 -15
-54 -33z m112 -207 c116 -174 168 -333 160 -487 -4 -78 -10 -103 -37 -157 -17
-36 -52 -86 -76 -113 l-44 -48 -1 191 c0 213 -4 227 -60 227 -56 0 -60 -14
-60 -227 l-1 -191 -40 45 c-142 156 -158 385 -43 615 35 70 134 225 144 225 3
0 29 -36 58 -80z m-838 -1021 c47 -11 131 -43 188 -70 167 -81 275 -205 316
-365 9 -34 16 -81 16 -104 l0 -42 -195 186 c-163 155 -200 186 -224 186 -31 0
-61 -29 -61 -60 0 -8 86 -99 192 -202 l193 -187 -45 6 c-61 7 -185 49 -240 80
-110 63 -195 158 -255 285 -35 73 -85 248 -85 296 0 24 1 25 58 18 31 -3 95
-16 142 -27z m1760 7 c0 -54 -53 -227 -95 -313 -53 -107 -146 -210 -235 -261
-64 -36 -186 -77 -250 -85 l-45 -6 193 187 c106 103 192 194 192 202 0 31 -30
60 -61 60 -24 0 -61 -31 -224 -186 l-195 -186 0 42 c0 140 90 307 214 400 119
87 337 165 474 169 27 1 32 -2 32 -23z m-1850 -1207 c178 -28 348 -107 451
-210 93 -92 133 -182 155 -344 l7 -50 -196 188 c-165 158 -200 187 -226 187
-31 0 -61 -29 -61 -60 0 -8 86 -99 192 -201 l192 -186 -57 8 c-256 34 -446
204 -530 474 -14 44 -28 103 -32 130 -4 28 -9 58 -12 68 -4 14 0 17 19 13 13
-3 57 -10 98 -17z m1857 4 c-3 -10 -8 -40 -12 -68 -4 -27 -18 -86 -32 -130
-84 -270 -274 -440 -530 -474 l-57 -8 192 186 c106 102 192 193 192 201 0 31
-30 60 -61 60 -26 0 -61 -29 -226 -187 l-196 -188 7 50 c4 28 12 73 18 100 52
235 262 396 593 455 55 10 104 19 108 19 5 1 6 -7 4 -16z m-779 -1913 c403
-43 758 -195 982 -420 73 -72 160 -184 160 -204 0 -3 -607 -6 -1350 -6 -742 0
-1350 3 -1350 6 0 20 87 132 160 204 307 308 867 476 1398 420z"/>
<path d="M2516 601 c-24 -26 -17 -60 17 -84 l27 -21 28 21 c15 11 28 30 30 42
5 30 -25 61 -58 61 -15 0 -35 -9 -44 -19z"/>
<path d="M2102 473 c-22 -9 -33 -50 -20 -78 24 -53 108 -35 108 24 0 45 -43
72 -88 54z"/>
<path d="M2947 462 c-25 -28 -21 -69 8 -88 32 -21 68 -12 83 21 28 61 -47 116
-91 67z"/>
<path d="M2533 330 c-52 -21 -31 -110 26 -110 15 0 35 8 44 18 44 48 -8 116
-70 92z"/>
</g>
</svg>
